<svg xmlns="http://www.w3.org/2000/svg" viewBox="0 0 1200 800" width="1200" height="800">
  <rect width="1200" height="800" fill="#F4F6F5"/>
  <line x1="0" y1="0" x2="0" y2="800" stroke="#14201E" stroke-width="1" opacity="0.06"/><line x1="40" y1="0" x2="40" y2="800" stroke="#14201E" stroke-width="1" opacity="0.06"/><line x1="80" y1="0" x2="80" y2="800" stroke="#14201E" stroke-width="1" opacity="0.06"/><line x1="120" y1="0" x2="120" y2="800" stroke="#14201E" stroke-width="1" opacity="0.06"/><line x1="160" y1="0" x2="160" y2="800" stroke="#14201E" stroke-width="1" opacity="0.06"/><line x1="200" y1="0" x2="200" y2="800" stroke="#14201E" stroke-width="1" opacity="0.06"/><line x1="240" y1="0" x2="240" y2="800" stroke="#14201E" stroke-width="1" opacity="0.06"/><line x1="280" y1="0" x2="280" y2="800" stroke="#14201E" stroke-width="1" opacity="0.06"/><line x1="320" y1="0" x2="320" y2="800" stroke="#14201E" stroke-width="1" opacity="0.06"/><line x1="360" y1="0" x2="360" y2="800" stroke="#14201E" stroke-width="1" opacity="0.06"/><line x1="400" y1="0" x2="400" y2="800" stroke="#14201E" stroke-width="1" opacity="0.06"/><line x1="440" y1="0" x2="440" y2="800" stroke="#14201E" stroke-width="1" opacity="0.06"/><line x1="480" y1="0" x2="480" y2="800" stroke="#14201E" stroke-width="1" opacity="0.06"/><line x1="520" y1="0" x2="520" y2="800" stroke="#14201E" stroke-width="1" opacity="0.06"/><line x1="560" y1="0" x2="560" y2="800" stroke="#14201E" stroke-width="1" opacity="0.06"/><line x1="600" y1="0" x2="600" y2="800" stroke="#14201E" stroke-width="1" opacity="0.06"/><line x1="640" y1="0" x2="640" y2="800" stroke="#14201E" stroke-width="1" opacity="0.06"/><line x1="680" y1="0" x2="680" y2="800" stroke="#14201E" stroke-width="1" opacity="0.06"/><line x1="720" y1="0" x2="720" y2="800" stroke="#14201E" stroke-width="1" opacity="0.06"/><line x1="760" y1="0" x2="760" y2="800" stroke="#14201E" stroke-width="1" opacity="0.06"/><line x1="800" y1="0" x2="800" y2="800" stroke="#14201E" stroke-width="1" opacity="0.06"/><line x1="840" y1="0" x2="840" y2="800" stroke="#14201E" stroke-width="1" opacity="0.06"/><line x1="880" y1="0" x2="880" y2="800" stroke="#14201E" stroke-width="1" opacity="0.06"/><line x1="920" y1="0" x2="920" y2="800" stroke="#14201E" stroke-width="1" opacity="0.06"/><line x1="960" y1="0" x2="960" y2="800" stroke="#14201E" stroke-width="1" opacity="0.06"/><line x1="1000" y1="0" x2="1000" y2="800" stroke="#14201E" stroke-width="1" opacity="0.06"/><line x1="1040" y1="0" x2="1040" y2="800" stroke="#14201E" stroke-width="1" opacity="0.06"/><line x1="1080" y1="0" x2="1080" y2="800" stroke="#14201E" stroke-width="1" opacity="0.06"/><line x1="1120" y1="0" x2="1120" y2="800" stroke="#14201E" stroke-width="1" opacity="0.06"/><line x1="1160" y1="0" x2="1160" y2="800" stroke="#14201E" stroke-width="1" opacity="0.06"/><line x1="1200" y1="0" x2="1200" y2="800" stroke="#14201E" stroke-width="1" opacity="0.06"/><line x1="0" y1="0" x2="1200" y2="0" stroke="#14201E" stroke-width="1" opacity="0.06"/><line x1="0" y1="40" x2="1200" y2="40" stroke="#14201E" stroke-width="1" opacity="0.06"/><line x1="0" y1="80" x2="1200" y2="80" stroke="#14201E" stroke-width="1" opacity="0.06"/><line x1="0" y1="120" x2="1200" y2="120" stroke="#14201E" stroke-width="1" opacity="0.06"/><line x1="0" y1="160" x2="1200" y2="160" stroke="#14201E" stroke-width="1" opacity="0.06"/><line x1="0" y1="200" x2="1200" y2="200" stroke="#14201E" stroke-width="1" opacity="0.06"/><line x1="0" y1="240" x2="1200" y2="240" stroke="#14201E" stroke-width="1" opacity="0.06"/><line x1="0" y1="280" x2="1200" y2="280" stroke="#14201E" stroke-width="1" opacity="0.06"/><line x1="0" y1="320" x2="1200" y2="320" stroke="#14201E" stroke-width="1" opacity="0.06"/><line x1="0" y1="360" x2="1200" y2="360" stroke="#14201E" stroke-width="1" opacity="0.06"/><line x1="0" y1="400" x2="1200" y2="400" stroke="#14201E" stroke-width="1" opacity="0.06"/><line x1="0" y1="440" x2="1200" y2="440" stroke="#14201E" stroke-width="1" opacity="0.06"/><line x1="0" y1="480" x2="1200" y2="480" stroke="#14201E" stroke-width="1" opacity="0.06"/><line x1="0" y1="520" x2="1200" y2="520" stroke="#14201E" stroke-width="1" opacity="0.06"/><line x1="0" y1="560" x2="1200" y2="560" stroke="#14201E" stroke-width="1" opacity="0.06"/><line x1="0" y1="600" x2="1200" y2="600" stroke="#14201E" stroke-width="1" opacity="0.06"/><line x1="0" y1="640" x2="1200" y2="640" stroke="#14201E" stroke-width="1" opacity="0.06"/><line x1="0" y1="680" x2="1200" y2="680" stroke="#14201E" stroke-width="1" opacity="0.06"/><line x1="0" y1="720" x2="1200" y2="720" stroke="#14201E" stroke-width="1" opacity="0.06"/><line x1="0" y1="760" x2="1200" y2="760" stroke="#14201E" stroke-width="1" opacity="0.06"/><line x1="0" y1="800" x2="1200" y2="800" stroke="#14201E" stroke-width="1" opacity="0.06"/>
  <rect x="408" y="252" width="536" height="304" fill="none" stroke="#14201E" stroke-width="1.5" opacity="0.5"/>
  <rect x="426" y="270" width="500" height="268" fill="none" stroke="#0E8A78" stroke-width="1.5" stroke-dasharray="4 6" opacity="0.8"/>
  <line x1="426" y1="308.2857142857143" x2="926" y2="308.2857142857143" stroke="#14201E" stroke-width="1" opacity="0.18"/><line x1="426" y1="346.57142857142856" x2="926" y2="346.57142857142856" stroke="#14201E" stroke-width="1" opacity="0.18"/><line x1="426" y1="384.8571428571429" x2="926" y2="384.8571428571429" stroke="#14201E" stroke-width="1" opacity="0.18"/><line x1="426" y1="423.1428571428571" x2="926" y2="423.1428571428571" stroke="#14201E" stroke-width="1" opacity="0.18"/><line x1="426" y1="461.42857142857144" x2="926" y2="461.42857142857144" stroke="#14201E" stroke-width="1" opacity="0.18"/><line x1="426" y1="499.7142857142857" x2="926" y2="499.7142857142857" stroke="#14201E" stroke-width="1" opacity="0.18"/>
  <circle cx="408" cy="252" r="4" fill="#0E8A78"/>
  <circle cx="944" cy="252" r="4" fill="#0E8A78"/>
  <circle cx="408" cy="556" r="4" fill="#0E8A78"/>
  <circle cx="944" cy="556" r="4" fill="#0E8A78"/>
  <line x1="60" y1="740" x2="1140" y2="740" stroke="#14201E" stroke-width="1" opacity="0.3"/>
  <text x="60" y="764" font-family="IBM Plex Mono, ui-monospace, monospace" font-size="15" letter-spacing="2" fill="#14201E" opacity="0.65">PRJ-04 · HATAY</text>
  <g opacity="0.4">
    <path d="M40 20V10h10" stroke="#14201E" stroke-width="1" fill="none"/>
    <path d="M1170 10h10v10" stroke="#14201E" stroke-width="1" fill="none"/>
    <path d="M1180 780v10h-10" stroke="#14201E" stroke-width="1" fill="none"/>
    <path d="M30 790H20v-10" stroke="#14201E" stroke-width="1" fill="none"/>
  </g>
</svg>