<svg xmlns="http://www.w3.org/2000/svg" viewBox="0 0 1200 630" width="1200" height="630">
  <rect width="1200" height="630" fill="#0E1615"/>
  <line x1="0" y1="0" x2="0" y2="630" stroke="#FFFFFF" stroke-width="1" opacity="0.06"/><line x1="40" y1="0" x2="40" y2="630" stroke="#FFFFFF" stroke-width="1" opacity="0.06"/><line x1="80" y1="0" x2="80" y2="630" stroke="#FFFFFF" stroke-width="1" opacity="0.06"/><line x1="120" y1="0" x2="120" y2="630" stroke="#FFFFFF" stroke-width="1" opacity="0.06"/><line x1="160" y1="0" x2="160" y2="630" stroke="#FFFFFF" stroke-width="1" opacity="0.06"/><line x1="200" y1="0" x2="200" y2="630" stroke="#FFFFFF" stroke-width="1" opacity="0.06"/><line x1="240" y1="0" x2="240" y2="630" stroke="#FFFFFF" stroke-width="1" opacity="0.06"/><line x1="280" y1="0" x2="280" y2="630" stroke="#FFFFFF" stroke-width="1" opacity="0.06"/><line x1="320" y1="0" x2="320" y2="630" stroke="#FFFFFF" stroke-width="1" opacity="0.06"/><line x1="360" y1="0" x2="360" y2="630" stroke="#FFFFFF" stroke-width="1" opacity="0.06"/><line x1="400" y1="0" x2="400" y2="630" stroke="#FFFFFF" stroke-width="1" opacity="0.06"/><line x1="440" y1="0" x2="440" y2="630" stroke="#FFFFFF" stroke-width="1" opacity="0.06"/><line x1="480" y1="0" x2="480" y2="630" stroke="#FFFFFF" stroke-width="1" opacity="0.06"/><line x1="520" y1="0" x2="520" y2="630" stroke="#FFFFFF" stroke-width="1" opacity="0.06"/><line x1="560" y1="0" x2="560" y2="630" stroke="#FFFFFF" stroke-width="1" opacity="0.06"/><line x1="600" y1="0" x2="600" y2="630" stroke="#FFFFFF" stroke-width="1" opacity="0.06"/><line x1="640" y1="0" x2="640" y2="630" stroke="#FFFFFF" stroke-width="1" opacity="0.06"/><line x1="680" y1="0" x2="680" y2="630" stroke="#FFFFFF" stroke-width="1" opacity="0.06"/><line x1="720" y1="0" x2="720" y2="630" stroke="#FFFFFF" stroke-width="1" opacity="0.06"/><line x1="760" y1="0" x2="760" y2="630" stroke="#FFFFFF" stroke-width="1" opacity="0.06"/><line x1="800" y1="0" x2="800" y2="630" stroke="#FFFFFF" stroke-width="1" opacity="0.06"/><line x1="840" y1="0" x2="840" y2="630" stroke="#FFFFFF" stroke-width="1" opacity="0.06"/><line x1="880" y1="0" x2="880" y2="630" stroke="#FFFFFF" stroke-width="1" opacity="0.06"/><line x1="920" y1="0" x2="920" y2="630" stroke="#FFFFFF" stroke-width="1" opacity="0.06"/><line x1="960" y1="0" x2="960" y2="630" stroke="#FFFFFF" stroke-width="1" opacity="0.06"/><line x1="1000" y1="0" x2="1000" y2="630" stroke="#FFFFFF" stroke-width="1" opacity="0.06"/><line x1="1040" y1="0" x2="1040" y2="630" stroke="#FFFFFF" stroke-width="1" opacity="0.06"/><line x1="1080" y1="0" x2="1080" y2="630" stroke="#FFFFFF" stroke-width="1" opacity="0.06"/><line x1="1120" y1="0" x2="1120" y2="630" stroke="#FFFFFF" stroke-width="1" opacity="0.06"/><line x1="1160" y1="0" x2="1160" y2="630" stroke="#FFFFFF" stroke-width="1" opacity="0.06"/><line x1="1200" y1="0" x2="1200" y2="630" stroke="#FFFFFF" stroke-width="1" opacity="0.06"/><line x1="0" y1="0" x2="1200" y2="0" stroke="#FFFFFF" stroke-width="1" opacity="0.06"/><line x1="0" y1="40" x2="1200" y2="40" stroke="#FFFFFF" stroke-width="1" opacity="0.06"/><line x1="0" y1="80" x2="1200" y2="80" stroke="#FFFFFF" stroke-width="1" opacity="0.06"/><line x1="0" y1="120" x2="1200" y2="120" stroke="#FFFFFF" stroke-width="1" opacity="0.06"/><line x1="0" y1="160" x2="1200" y2="160" stroke="#FFFFFF" stroke-width="1" opacity="0.06"/><line x1="0" y1="200" x2="1200" y2="200" stroke="#FFFFFF" stroke-width="1" opacity="0.06"/><line x1="0" y1="240" x2="1200" y2="240" stroke="#FFFFFF" stroke-width="1" opacity="0.06"/><line x1="0" y1="280" x2="1200" y2="280" stroke="#FFFFFF" stroke-width="1" opacity="0.06"/><line x1="0" y1="320" x2="1200" y2="320" stroke="#FFFFFF" stroke-width="1" opacity="0.06"/><line x1="0" y1="360" x2="1200" y2="360" stroke="#FFFFFF" stroke-width="1" opacity="0.06"/><line x1="0" y1="400" x2="1200" y2="400" stroke="#FFFFFF" stroke-width="1" opacity="0.06"/><line x1="0" y1="440" x2="1200" y2="440" stroke="#FFFFFF" stroke-width="1" opacity="0.06"/><line x1="0" y1="480" x2="1200" y2="480" stroke="#FFFFFF" stroke-width="1" opacity="0.06"/><line x1="0" y1="520" x2="1200" y2="520" stroke="#FFFFFF" stroke-width="1" opacity="0.06"/><line x1="0" y1="560" x2="1200" y2="560" stroke="#FFFFFF" stroke-width="1" opacity="0.06"/><line x1="0" y1="600" x2="1200" y2="600" stroke="#FFFFFF" stroke-width="1" opacity="0.06"/>
  <path d="M0 63 C 200 33, 380 93, 600 53 S 900 83, 1200 53" stroke="#0E8A78" stroke-width="1" fill="none" opacity="0.15"/><path d="M0 103 C 200 73, 380 133, 600 93 S 900 123, 1200 93" stroke="#0E8A78" stroke-width="1" fill="none" opacity="0.15"/><path d="M0 143 C 200 113, 380 173, 600 133 S 900 163, 1200 133" stroke="#0E8A78" stroke-width="1" fill="none" opacity="0.15"/><path d="M0 183 C 200 153, 380 213, 600 173 S 900 203, 1200 173" stroke="#0E8A78" stroke-width="1" fill="none" opacity="0.15"/><path d="M0 223 C 200 193, 380 253, 600 213 S 900 243, 1200 213" stroke="#0E8A78" stroke-width="1" fill="none" opacity="0.15"/>
  <circle cx="769" cy="315" r="90" fill="none" stroke="#0E8A78" stroke-width="1.5" opacity="0.6"/>
  <circle cx="769" cy="315" r="4" fill="#0E8A78"/>
</svg>